<svg xmlns="http://www.w3.org/2000/svg" xmlns:xlink="http://www.w3.org/1999/xlink" width="3000" zoomAndPan="magnify" viewBox="0 0 2250 2250.000011" height="3000" preserveAspectRatio="xMidYMid meet" version="1.0"><defs><clipPath id="2e34465057"><path d="M 675.199219 674.699219 L 1574.800781 674.699219 L 1574.800781 1574.300781 L 675.199219 1574.300781 Z M 675.199219 674.699219 " clip-rule="nonzero"/></clipPath></defs><g clip-path="url(#2e34465057)"><path fill="#020100" d="M 1574.800781 1124.5 C 1574.800781 1131.863281 1574.621094 1139.21875 1574.257812 1146.570312 C 1573.898438 1153.921875 1573.355469 1161.261719 1572.632812 1168.589844 C 1571.914062 1175.914062 1571.011719 1183.21875 1569.929688 1190.5 C 1568.851562 1197.78125 1567.59375 1205.03125 1566.15625 1212.25 C 1564.722656 1219.472656 1563.109375 1226.652344 1561.320312 1233.792969 C 1559.53125 1240.933594 1557.570312 1248.027344 1555.433594 1255.070312 C 1553.292969 1262.113281 1550.984375 1269.101562 1548.507812 1276.035156 C 1546.027344 1282.964844 1543.378906 1289.832031 1540.5625 1296.632812 C 1537.742188 1303.433594 1534.761719 1310.160156 1531.613281 1316.816406 C 1528.46875 1323.46875 1525.15625 1330.042969 1521.6875 1336.535156 C 1518.21875 1343.027344 1514.589844 1349.429688 1510.804688 1355.742188 C 1507.023438 1362.058594 1503.085938 1368.273438 1498.996094 1374.394531 C 1494.90625 1380.515625 1490.667969 1386.53125 1486.28125 1392.445312 C 1481.898438 1398.359375 1477.371094 1404.160156 1472.699219 1409.851562 C 1468.03125 1415.539062 1463.222656 1421.113281 1458.28125 1426.566406 C 1453.335938 1432.023438 1448.261719 1437.351562 1443.054688 1442.558594 C 1437.851562 1447.761719 1432.523438 1452.835938 1427.066406 1457.78125 C 1421.613281 1462.722656 1416.039062 1467.53125 1410.351562 1472.199219 C 1404.660156 1476.871094 1398.859375 1481.398438 1392.945312 1485.78125 C 1387.03125 1490.167969 1381.015625 1494.40625 1374.894531 1498.496094 C 1368.773438 1502.585938 1362.558594 1506.523438 1356.242188 1510.304688 C 1349.929688 1514.089844 1343.527344 1517.71875 1337.035156 1521.1875 C 1330.542969 1524.660156 1323.96875 1527.96875 1317.3125 1531.113281 C 1310.660156 1534.261719 1303.933594 1537.246094 1297.128906 1540.0625 C 1290.328125 1542.878906 1283.464844 1545.527344 1276.53125 1548.007812 C 1269.601562 1550.488281 1262.613281 1552.796875 1255.570312 1554.933594 C 1248.527344 1557.070312 1241.433594 1559.03125 1234.292969 1560.820312 C 1227.152344 1562.609375 1219.972656 1564.222656 1212.75 1565.65625 C 1205.53125 1567.09375 1198.28125 1568.351562 1191 1569.433594 C 1183.71875 1570.511719 1176.414062 1571.414062 1169.089844 1572.132812 C 1161.761719 1572.855469 1154.421875 1573.398438 1147.070312 1573.757812 C 1139.71875 1574.121094 1132.359375 1574.300781 1125 1574.300781 C 1117.636719 1574.300781 1110.28125 1574.121094 1102.929688 1573.757812 C 1095.578125 1573.398438 1088.238281 1572.855469 1080.910156 1572.132812 C 1073.585938 1571.414062 1066.28125 1570.511719 1059 1569.433594 C 1051.71875 1568.351562 1044.46875 1567.09375 1037.25 1565.65625 C 1030.027344 1564.222656 1022.847656 1562.609375 1015.707031 1560.820312 C 1008.566406 1559.03125 1001.472656 1557.070312 994.429688 1554.933594 C 987.386719 1552.796875 980.398438 1550.488281 973.46875 1548.007812 C 966.535156 1545.527344 959.667969 1542.878906 952.867188 1540.0625 C 946.066406 1537.246094 939.339844 1534.261719 932.6875 1531.113281 C 926.03125 1527.96875 919.457031 1524.660156 912.964844 1521.1875 C 906.472656 1517.71875 900.070312 1514.089844 893.757812 1510.304688 C 887.441406 1506.523438 881.226562 1502.585938 875.105469 1498.496094 C 868.984375 1494.40625 862.96875 1490.167969 857.054688 1485.78125 C 851.140625 1481.398438 845.339844 1476.871094 839.648438 1472.199219 C 833.960938 1467.53125 828.386719 1462.722656 822.933594 1457.78125 C 817.476562 1452.835938 812.148438 1447.761719 806.941406 1442.558594 C 801.738281 1437.351562 796.664062 1432.023438 791.71875 1426.566406 C 786.777344 1421.113281 781.96875 1415.539062 777.300781 1409.851562 C 772.628906 1404.160156 768.101562 1398.359375 763.71875 1392.445312 C 759.332031 1386.53125 755.09375 1380.515625 751.003906 1374.394531 C 746.914062 1368.273438 742.976562 1362.058594 739.195312 1355.742188 C 735.410156 1349.429688 731.78125 1343.027344 728.3125 1336.535156 C 724.839844 1330.042969 721.53125 1323.46875 718.386719 1316.816406 C 715.238281 1310.160156 712.257812 1303.433594 709.4375 1296.632812 C 706.621094 1289.832031 703.972656 1282.964844 701.492188 1276.035156 C 699.011719 1269.101562 696.703125 1262.113281 694.566406 1255.070312 C 692.429688 1248.027344 690.46875 1240.933594 688.679688 1233.792969 C 686.890625 1226.652344 685.277344 1219.472656 683.84375 1212.25 C 682.40625 1205.03125 681.148438 1197.78125 680.066406 1190.5 C 678.988281 1183.21875 678.085938 1175.914062 677.367188 1168.589844 C 676.644531 1161.261719 676.101562 1153.921875 675.742188 1146.570312 C 675.378906 1139.21875 675.199219 1131.863281 675.199219 1124.5 C 675.199219 1117.140625 675.378906 1109.78125 675.742188 1102.429688 C 676.101562 1095.078125 676.644531 1087.738281 677.367188 1080.414062 C 678.085938 1073.085938 678.988281 1065.78125 680.066406 1058.5 C 681.148438 1051.21875 682.40625 1043.96875 683.84375 1036.75 C 685.277344 1029.527344 686.890625 1022.347656 688.679688 1015.207031 C 690.46875 1008.066406 692.429688 1000.972656 694.566406 993.929688 C 696.703125 986.886719 699.011719 979.898438 701.492188 972.96875 C 703.972656 966.035156 706.621094 959.171875 709.4375 952.371094 C 712.257812 945.566406 715.238281 938.839844 718.386719 932.1875 C 721.53125 925.53125 724.839844 918.957031 728.3125 912.464844 C 731.78125 905.972656 735.410156 899.570312 739.195312 893.257812 C 742.976562 886.941406 746.914062 880.726562 751.003906 874.605469 C 755.09375 868.484375 759.332031 862.46875 763.71875 856.554688 C 768.101562 850.640625 772.628906 844.839844 777.300781 839.148438 C 781.96875 833.460938 786.777344 827.886719 791.71875 822.433594 C 796.664062 816.980469 801.738281 811.648438 806.941406 806.445312 C 812.148438 801.238281 817.476562 796.164062 822.933594 791.21875 C 828.386719 786.277344 833.960938 781.46875 839.648438 776.800781 C 845.339844 772.128906 851.140625 767.601562 857.054688 763.21875 C 862.96875 758.832031 868.984375 754.59375 875.105469 750.503906 C 881.226562 746.414062 887.441406 742.476562 893.757812 738.695312 C 900.070312 734.910156 906.472656 731.28125 912.964844 727.8125 C 919.457031 724.34375 926.03125 721.03125 932.6875 717.886719 C 939.339844 714.738281 946.066406 711.757812 952.867188 708.9375 C 959.667969 706.121094 966.535156 703.472656 973.46875 700.992188 C 980.398438 698.515625 987.386719 696.207031 994.429688 694.070312 C 1001.472656 691.929688 1008.566406 689.96875 1015.707031 688.179688 C 1022.847656 686.390625 1030.027344 684.777344 1037.25 683.34375 C 1044.46875 681.90625 1051.71875 680.648438 1059 679.570312 C 1066.28125 678.488281 1073.585938 677.585938 1080.910156 676.867188 C 1088.238281 676.144531 1095.578125 675.601562 1102.929688 675.242188 C 1110.28125 674.878906 1117.636719 674.699219 1125 674.699219 C 1132.359375 674.699219 1139.71875 674.878906 1147.070312 675.242188 C 1154.421875 675.601562 1161.761719 676.144531 1169.089844 676.867188 C 1176.414062 677.585938 1183.71875 678.488281 1191 679.570312 C 1198.28125 680.648438 1205.53125 681.90625 1212.75 683.34375 C 1219.972656 684.777344 1227.152344 686.390625 1234.292969 688.179688 C 1241.433594 689.96875 1248.527344 691.929688 1255.570312 694.070312 C 1262.613281 696.207031 1269.601562 698.515625 1276.53125 700.992188 C 1283.464844 703.472656 1290.328125 706.121094 1297.132812 708.9375 C 1303.933594 711.757812 1310.660156 714.738281 1317.3125 717.886719 C 1323.96875 721.03125 1330.542969 724.34375 1337.035156 727.8125 C 1343.527344 731.28125 1349.929688 734.910156 1356.242188 738.695312 C 1362.558594 742.476562 1368.773438 746.414062 1374.894531 750.503906 C 1381.015625 754.59375 1387.03125 758.832031 1392.945312 763.21875 C 1398.859375 767.601562 1404.660156 772.128906 1410.351562 776.800781 C 1416.039062 781.46875 1421.613281 786.277344 1427.066406 791.21875 C 1432.523438 796.164062 1437.851562 801.238281 1443.054688 806.445312 C 1448.261719 811.648438 1453.335938 816.980469 1458.28125 822.433594 C 1463.222656 827.886719 1468.03125 833.460938 1472.699219 839.148438 C 1477.371094 844.839844 1481.898438 850.640625 1486.28125 856.554688 C 1490.667969 862.46875 1494.90625 868.484375 1498.996094 874.605469 C 1503.085938 880.726562 1507.023438 886.941406 1510.804688 893.257812 C 1514.589844 899.570312 1518.21875 905.972656 1521.6875 912.464844 C 1525.15625 918.957031 1528.46875 925.53125 1531.613281 932.1875 C 1534.761719 938.839844 1537.742188 945.566406 1540.5625 952.371094 C 1543.378906 959.171875 1546.027344 966.035156 1548.507812 972.96875 C 1550.984375 979.898438 1553.292969 986.886719 1555.433594 993.929688 C 1557.570312 1000.972656 1559.53125 1008.066406 1561.320312 1015.207031 C 1563.109375 1022.347656 1564.722656 1029.527344 1566.15625 1036.75 C 1567.59375 1043.96875 1568.851562 1051.21875 1569.929688 1058.5 C 1571.011719 1065.78125 1571.914062 1073.085938 1572.632812 1080.414062 C 1573.355469 1087.738281 1573.898438 1095.078125 1574.257812 1102.429688 C 1574.621094 1109.78125 1574.800781 1117.140625 1574.800781 1124.5 Z M 1574.800781 1124.5 " fill-opacity="1" fill-rule="nonzero"/></g></svg>